<svg width="137" height="149" viewBox="0 0 137 149" fill="none" xmlns="http://www.w3.org/2000/svg">
<g clip-path="url(#clip0_62_2)">
<mask id="mask0_62_2" style="mask-type:luminance" maskUnits="userSpaceOnUse" x="0" y="0" width="137" height="149">
<path d="M137 0H0V149H137V0Z" fill="white"/>
</mask>
<g mask="url(#mask0_62_2)">
<path d="M126.77 -0.22998H9.4505C3.96631 -0.22998 -0.479492 4.21583 -0.479492 9.70002V138.95C-0.479492 144.434 3.96631 148.88 9.4505 148.88H126.77C132.254 148.88 136.7 144.434 136.7 138.95V9.70002C136.7 4.21583 132.254 -0.22998 126.77 -0.22998Z" fill="#EBE6DC"/>
<path d="M40.3105 10.6401C23.1905 10.6401 9.27051 24.8301 9.27051 42.2701C9.27051 59.7101 23.2005 73.8201 40.3105 73.8201C57.4205 73.8201 71.4405 59.6701 71.4405 42.2701C71.4405 24.8701 57.4805 10.6401 40.3105 10.6401ZM56.2105 42.2701C56.2105 52.0001 49.3705 59.3401 40.3105 59.3401C31.2505 59.3401 24.4105 52.0001 24.4105 42.2701C24.4105 32.5401 31.2505 25.1101 40.3105 25.1101C49.3705 25.1101 56.2105 32.4901 56.2105 42.2701Z" fill="#2C2C2C"/>
<path d="M84.9504 72.8101H86.0204C89.9004 72.8101 93.0604 69.6501 93.0604 65.7701V52.0901L97.5004 51.9501L109.33 69.6601C110.64 71.6301 112.83 72.8001 115.19 72.8001H115.82C118.46 72.8001 120.85 71.3501 122.07 69.0001C123.29 66.6601 123.1 63.8701 121.58 61.7101L113.23 49.7401C119.28 46.4001 123.34 39.4901 123.34 32.2101C123.34 26.7501 121.59 21.7401 118.41 18.1001C114.72 13.8701 109.28 11.6301 102.67 11.6301H84.9404C81.0604 11.6301 77.9004 14.7901 77.9004 18.6701V65.7601C77.9004 69.6401 81.0604 72.8001 84.9404 72.8001L84.9504 72.8101ZM93.0604 39.2601V25.4501H101.51C106.08 25.4501 108.12 28.9801 108.12 32.4801C108.12 35.0101 107.14 39.2601 100.59 39.2601H93.0604Z" fill="#2C2C2C"/>
<path d="M127.37 129.24L109.87 82.1501C108.85 79.4101 106.2 77.5601 103.27 77.5601H98.0603C95.1403 77.5601 92.4903 79.4001 91.4703 82.1401L73.9003 129.23C73.0903 131.39 73.4003 133.81 74.7103 135.7C76.0203 137.59 78.1903 138.72 80.4903 138.72H81.4603C84.4903 138.72 87.1804 136.79 88.1404 133.91L91.1404 124.91H110.21L113.27 133.94C114.24 136.8 116.92 138.72 119.93 138.72H120.77C123.07 138.72 125.23 137.59 126.55 135.7C127.86 133.81 128.17 131.39 127.37 129.23V129.24ZM105.59 111.28H95.7503L100.67 96.6901L105.59 111.28Z" fill="#2C2C2C"/>
<path d="M60.4902 77.79H59.6502C56.9102 77.79 54.4102 79.4 53.2602 81.89L40.3802 119.85L27.4802 81.76L27.3602 81.49C26.1302 79.21 23.7602 77.79 21.1702 77.79H20.2002C17.9002 77.79 15.7302 78.92 14.4202 80.81C13.1102 82.7 12.8002 85.12 13.6102 87.28L31.1802 134.37C32.2002 137.11 34.8502 138.95 37.7702 138.95H42.9802C45.9102 138.95 48.5602 137.11 49.5802 134.36L67.0802 87.27C67.8802 85.11 67.5802 82.69 66.2602 80.8C64.9502 78.91 62.7902 77.78 60.4802 77.78L60.4902 77.79Z" fill="#2C2C2C"/>
</g>
</g>
<defs>
<clipPath id="clip0_62_2">
<rect width="137" height="149" fill="white"/>
</clipPath>
</defs>
</svg>
